<svg xmlns="http://www.w3.org/2000/svg" version="1.1" xmlns:xlink="http://www.w3.org/1999/xlink" xmlns:svgjs="http://svgjs.dev/svgjs" width="1000" height="161" viewBox="0 0 1000 161"><g transform="matrix(1,0,0,1,-0.6060574733335216,0.6271453125000193)"><svg viewBox="0 0 396 64" data-background-color="#ffffff" preserveAspectRatio="xMidYMid meet" height="161" width="1000" xmlns="http://www.w3.org/2000/svg" xmlns:xlink="http://www.w3.org/1999/xlink"><defs></defs><g id="tight-bounds" transform="matrix(1,0,0,1,0.24000124055987726,-0.24930000000000518)"><svg viewBox="0 0 395.52 64.4986" height="64.4986" width="395.52"><g><svg viewBox="0 0 395.52 64.4986" height="64.4986" width="395.52"><g><svg viewBox="0 0 395.52 64.4986" height="64.4986" width="395.52"><g><svg viewBox="0 0 395.52 64.4986" height="64.4986" width="395.52"><g><svg viewBox="0 0 395.52 64.4986" height="64.4986" width="395.52"><g transform="matrix(1,0,0,1,0,0)"><svg width="395.52" viewBox="1.2700014114379883 -33.08000564575195 225 33.690006256103516" height="64.4986" data-palette-color="#0080ff"><svg></svg><g class="undefined-text-0" data-fill-palette-color="primary" id="text-0"><path d="M18.75-33.08v0c3.047 0 5.643 0.53 7.79 1.59v0 7.47l-0.05 0.05c-0.913-1.4-2.833-2.33-5.76-2.79v0c-0.867-0.147-1.957-0.22-3.27-0.22-1.32 0-2.617 0.25-3.89 0.75-1.267 0.493-2.307 1.197-3.12 2.11v0c-1.58 1.773-2.37 4.303-2.37 7.59v0c0 3.827 1 6.677 3 8.55v0c1.66 1.56 3.86 2.34 6.6 2.34v0c3.087 0 5.593-0.66 7.52-1.98v0c0.7-0.473 1.293-1.06 1.78-1.76v0l0.07 0.05v6.84c-2.487 2.067-5.84 3.1-10.06 3.1v0c-4.96 0-8.85-1.58-11.67-4.74v0c-2.7-3.007-4.05-6.993-4.05-11.96v0c0-5.253 1.48-9.397 4.44-12.43v0c3-3.04 7.347-4.56 13.04-4.56zM39.79-13.79v13.94c-1.56-0.1-3.413-0.15-5.56-0.15v0h-0.78v-32.59c1.007 0.08 1.723 0.12 2.15 0.12v0h1c1.287 0 2.35-0.067 3.19-0.2v0 13.02h11.48v-12.94c1.353 0.08 2.667 0.12 3.94 0.12 1.28 0 2.083-0.067 2.41-0.2v0 32.82c-0.78-0.1-2.327-0.15-4.64-0.15v0h-1.71v-13.79zM82.67 0.2l-5.67-12.82c-0.487 0.033-1.007 0.05-1.56 0.05-0.553 0-1.377-0.043-2.47-0.13v0 12.7h-6.47v-32.64c2.28-0.293 5.08-0.44 8.4-0.44v0c4.527 0 7.9 0.833 10.12 2.5 2.22 1.667 3.33 4.243 3.33 7.73v0c0 2.7-1.017 5.01-3.05 6.93v0c-0.667 0.62-1.43 1.157-2.29 1.61v0l4.98 10.5c0.973 2.167 1.72 3.453 2.24 3.86v0l-0.12 0.12c-1.58-0.26-4.06-0.25-7.44 0.03zM75.37-27.32v0c-0.833 0-1.633 0.04-2.4 0.12v0 9.33c0.8 0.113 1.737 0.17 2.81 0.17 1.073 0 1.977-0.093 2.71-0.28 0.733-0.187 1.37-0.477 1.91-0.87v0c1.153-0.86 1.73-2.153 1.73-3.88 0-1.727-0.603-2.94-1.81-3.64v0c-1.12-0.633-2.77-0.95-4.95-0.95zM98.29-3.86c-1.48-1.413-2.647-3.113-3.5-5.1-0.853-1.987-1.28-4.163-1.28-6.53 0-2.367 0.397-4.61 1.19-6.73 0.8-2.113 1.94-3.977 3.42-5.59 1.48-1.607 3.27-2.887 5.37-3.84 2.1-0.953 4.453-1.43 7.06-1.43v0c4.493 0 8.277 1.417 11.35 4.25v0c3.287 3.027 4.93 7.11 4.93 12.25v0c0 4.98-1.693 9.123-5.08 12.43v0c-2.08 2.033-4.56 3.433-7.44 4.2v0c-1.42 0.373-3.077 0.56-4.97 0.56-1.9 0-3.847-0.39-5.84-1.17-1.993-0.78-3.73-1.88-5.21-3.3zM100.29-15.82v0c0 1.513 0.253 2.903 0.76 4.17 0.507 1.273 1.207 2.367 2.1 3.28v0c1.907 1.92 4.357 2.88 7.35 2.88v0c2.847 0 5.133-0.92 6.86-2.76v0c1.76-1.907 2.64-4.503 2.64-7.79v0c0-3.093-0.84-5.673-2.52-7.74v0c-1.807-2.213-4.28-3.32-7.42-3.32v0c-3.047 0-5.463 1.123-7.25 3.37v0c-1.68 2.1-2.52 4.737-2.52 7.91zM139.7 0h-6.37c0.093-0.553 0.14-1.157 0.14-1.81v0-30.66h4.88l12.94 20.36v-18.7c0-0.893-0.08-1.447-0.24-1.66v0h6.59c-0.08 0.653-0.12 1.37-0.12 2.15v0 30.32h-5.08l-12.74-19.56zM168.95-3.86c-1.487-1.413-2.657-3.113-3.51-5.1-0.853-1.987-1.28-4.163-1.28-6.53 0-2.367 0.4-4.61 1.2-6.73 0.793-2.113 1.93-3.977 3.41-5.59 1.487-1.607 3.28-2.887 5.38-3.84 2.093-0.953 4.443-1.43 7.05-1.43v0c4.493 0 8.277 1.417 11.35 4.25v0c3.293 3.027 4.94 7.11 4.94 12.25v0c0 4.98-1.693 9.123-5.08 12.43v0c-2.087 2.033-4.57 3.433-7.45 4.2v0c-1.413 0.373-3.07 0.56-4.97 0.56-1.893 0-3.837-0.39-5.83-1.17-1.993-0.78-3.73-1.88-5.21-3.3zM170.95-15.82v0c0 1.513 0.25 2.903 0.75 4.17 0.507 1.273 1.207 2.367 2.1 3.28v0c1.907 1.92 4.357 2.88 7.35 2.88v0c2.847 0 5.133-0.92 6.86-2.76v0c1.76-1.907 2.64-4.503 2.64-7.79v0c0-3.093-0.84-5.673-2.52-7.74v0c-1.807-2.213-4.28-3.32-7.42-3.32v0c-3.04 0-5.457 1.123-7.25 3.37v0c-1.673 2.1-2.51 4.737-2.51 7.91zM223.36-30.66v0l-0.46 7.17-0.17 0.05c-1.207-1.807-3.257-2.977-6.15-3.51v0c-0.913-0.18-1.79-0.27-2.63-0.27-0.833 0-1.55 0.073-2.15 0.22-0.593 0.147-1.1 0.357-1.52 0.63v0c-0.893 0.587-1.34 1.353-1.34 2.3v0c0 1.233 0.39 2.16 1.17 2.78v0c0.973 0.747 2.593 1.273 4.86 1.58 2.26 0.3 4.073 0.71 5.44 1.23 1.367 0.52 2.49 1.18 3.37 1.98v0c1.66 1.493 2.49 3.607 2.49 6.34v0c0 3.58-1.35 6.34-4.05 8.28v0c-2.313 1.66-5.227 2.49-8.74 2.49v0c-2.833 0-5.633-0.537-8.4-1.61v0c-0.913-0.36-1.71-0.777-2.39-1.25v0l0.26-8.15 0.1-0.07c2.02 3.48 5.333 5.22 9.94 5.22v0c3.273 0 5.437-0.79 6.49-2.37v0c0.36-0.533 0.54-1.13 0.54-1.79 0-0.66-0.107-1.207-0.32-1.64-0.213-0.427-0.563-0.797-1.05-1.11v0c-0.94-0.62-2.527-1.033-4.76-1.24-2.227-0.213-4.05-0.613-5.47-1.2-1.413-0.587-2.543-1.31-3.39-2.17v0c-1.533-1.567-2.3-3.75-2.3-6.55v0c0-2.893 1.02-5.237 3.06-7.03v0c2.067-1.82 4.853-2.73 8.36-2.73 3.507 0 6.577 0.807 9.21 2.42z" data-fill-palette-color="primary" fill="#0080ff" opacity="1"></path></g></svg></g></svg></g></svg></g></svg></g></svg></g></svg><rect width="395.52" height="64.4986" fill="none" stroke="none" visibility="hidden"></rect></g></svg></g></svg>